<svg width="115" height="13" viewBox="0 0 115 13" fill="none" xmlns="http://www.w3.org/2000/svg">
<path d="M6.41 2.395H1.444V5.164H5.318V6.139H1.444V10H0.404V1.42H6.41V2.395ZM10.1236 3.37C10.739 3.37 11.2806 3.50433 11.7486 3.773C12.2253 4.04167 12.598 4.43167 12.8666 4.943C13.1353 5.44567 13.2696 6.048 13.2696 6.75C13.2696 7.452 13.1353 8.05867 12.8666 8.57C12.598 9.07267 12.2253 9.45833 11.7486 9.727C11.2806 9.99567 10.739 10.13 10.1236 10.13C9.51697 10.13 8.9753 9.99567 8.49863 9.727C8.02197 9.45833 7.6493 9.07267 7.38063 8.57C7.11197 8.05867 6.97763 7.452 6.97763 6.75C6.97763 6.048 7.11197 5.44567 7.38063 4.943C7.6493 4.43167 8.02197 4.04167 8.49863 3.773C8.9753 3.50433 9.51697 3.37 10.1236 3.37ZM10.1236 4.267C9.68163 4.267 9.30463 4.36667 8.99263 4.566C8.68063 4.76533 8.43797 5.05133 8.26463 5.424C8.09997 5.788 8.01763 6.23 8.01763 6.75C8.01763 7.26133 8.09997 7.70333 8.26463 8.076C8.43797 8.44867 8.68063 8.73467 8.99263 8.934C9.30463 9.13333 9.68163 9.233 10.1236 9.233C10.5656 9.233 10.9426 9.13333 11.2546 8.934C11.5666 8.73467 11.805 8.44867 11.9696 8.076C12.143 7.70333 12.2296 7.26133 12.2296 6.75C12.2296 6.23 12.143 5.788 11.9696 5.424C11.805 5.05133 11.5666 4.76533 11.2546 4.566C10.9426 4.36667 10.5656 4.267 10.1236 4.267ZM15.2276 10V3.5H16.0726L16.2156 4.566C16.3976 4.16733 16.6619 3.86833 17.0086 3.669C17.3639 3.46967 17.7929 3.37 18.2956 3.37C18.4082 3.37 18.5296 3.37867 18.6596 3.396C18.7982 3.41333 18.9152 3.448 19.0106 3.5L18.8286 4.449C18.7332 4.41433 18.6292 4.38833 18.5166 4.371C18.4039 4.35367 18.2436 4.345 18.0356 4.345C17.7669 4.345 17.4939 4.423 17.2166 4.579C16.9479 4.735 16.7226 4.97333 16.5406 5.294C16.3586 5.606 16.2676 6.00467 16.2676 6.49V10H15.2276ZM25.6771 2.304L25.9111 3.227C25.9025 3.227 25.8895 3.227 25.8721 3.227C25.8548 3.227 25.8375 3.227 25.8201 3.227C25.3955 3.227 25.0661 3.31367 24.8321 3.487C24.6068 3.65167 24.4941 3.92033 24.4941 4.293L23.8571 3.968C23.8571 3.63 23.9351 3.33533 24.0911 3.084C24.2471 2.83267 24.4595 2.642 24.7281 2.512C24.9968 2.37333 25.2915 2.304 25.6121 2.304C25.6208 2.304 25.6295 2.304 25.6381 2.304C25.6555 2.304 25.6685 2.304 25.6771 2.304ZM23.7011 9.168C24.3165 9.168 24.7975 9.311 25.1441 9.597C25.4908 9.87433 25.6641 10.247 25.6641 10.715C25.6641 11.1397 25.5211 11.508 25.2351 11.82C24.9578 12.132 24.5808 12.3703 24.1041 12.535C23.6361 12.7083 23.1075 12.795 22.5181 12.795C21.4955 12.795 20.7285 12.6217 20.2171 12.275C19.7145 11.9283 19.4631 11.5123 19.4631 11.027C19.4631 10.6803 19.5758 10.3683 19.8011 10.091C20.0351 9.82233 20.4251 9.67067 20.9711 9.636L20.8801 9.831C20.5855 9.753 20.3341 9.623 20.1261 9.441C19.9268 9.25033 19.8271 8.97733 19.8271 8.622C19.8271 8.26667 19.9571 7.96333 20.2171 7.712C20.4858 7.452 20.8801 7.29167 21.4001 7.231L22.0891 7.582H21.9591C21.5345 7.62533 21.2311 7.73367 21.0491 7.907C20.8758 8.07167 20.7891 8.25367 20.7891 8.453C20.7891 8.69567 20.8758 8.87767 21.0491 8.999C21.2311 9.11167 21.4825 9.168 21.8031 9.168H23.7011ZM22.5051 11.924C23.0078 11.924 23.4195 11.872 23.7401 11.768C24.0695 11.664 24.3121 11.5297 24.4681 11.365C24.6241 11.2003 24.7021 11.0227 24.7021 10.832C24.7021 10.598 24.6068 10.4117 24.4161 10.273C24.2341 10.1343 23.9005 10.065 23.4151 10.065H21.4131C21.1358 10.065 20.9018 10.1343 20.7111 10.273C20.5205 10.4203 20.4251 10.6197 20.4251 10.871C20.4251 11.1917 20.6071 11.4473 20.9711 11.638C21.3438 11.8287 21.8551 11.924 22.5051 11.924ZM22.4141 3.37C22.9341 3.37 23.3935 3.46533 23.7921 3.656C24.1995 3.838 24.5158 4.09367 24.7411 4.423C24.9665 4.75233 25.0791 5.13367 25.0791 5.567C25.0791 5.99167 24.9665 6.373 24.7411 6.711C24.5158 7.04033 24.1995 7.30033 23.7921 7.491C23.3935 7.673 22.9341 7.764 22.4141 7.764C21.5561 7.764 20.8975 7.56033 20.4381 7.153C19.9788 6.737 19.7491 6.20833 19.7491 5.567C19.7491 5.13367 19.8618 4.75233 20.0871 4.423C20.3211 4.09367 20.6375 3.838 21.0361 3.656C21.4348 3.46533 21.8941 3.37 22.4141 3.37ZM22.4141 4.215C21.9635 4.215 21.5865 4.34067 21.2831 4.592C20.9798 4.83467 20.8281 5.15967 20.8281 5.567C20.8281 5.96567 20.9798 6.29067 21.2831 6.542C21.5865 6.79333 21.9635 6.919 22.4141 6.919C22.8648 6.919 23.2418 6.79333 23.5451 6.542C23.8485 6.29067 24.0001 5.96567 24.0001 5.567C24.0001 5.15967 23.8485 4.83467 23.5451 4.592C23.2418 4.34067 22.8648 4.215 22.4141 4.215ZM29.8141 3.37C30.4294 3.37 30.9711 3.50433 31.4391 3.773C31.9157 4.04167 32.2884 4.43167 32.5571 4.943C32.8257 5.44567 32.9601 6.048 32.9601 6.75C32.9601 7.452 32.8257 8.05867 32.5571 8.57C32.2884 9.07267 31.9157 9.45833 31.4391 9.727C30.9711 9.99567 30.4294 10.13 29.8141 10.13C29.2074 10.13 28.6657 9.99567 28.1891 9.727C27.7124 9.45833 27.3397 9.07267 27.0711 8.57C26.8024 8.05867 26.6681 7.452 26.6681 6.75C26.6681 6.048 26.8024 5.44567 27.0711 4.943C27.3397 4.43167 27.7124 4.04167 28.1891 3.773C28.6657 3.50433 29.2074 3.37 29.8141 3.37ZM29.8141 4.267C29.3721 4.267 28.9951 4.36667 28.6831 4.566C28.3711 4.76533 28.1284 5.05133 27.9551 5.424C27.7904 5.788 27.7081 6.23 27.7081 6.75C27.7081 7.26133 27.7904 7.70333 27.9551 8.076C28.1284 8.44867 28.3711 8.73467 28.6831 8.934C28.9951 9.13333 29.3721 9.233 29.8141 9.233C30.2561 9.233 30.6331 9.13333 30.9451 8.934C31.2571 8.73467 31.4954 8.44867 31.6601 8.076C31.8334 7.70333 31.9201 7.26133 31.9201 6.75C31.9201 6.23 31.8334 5.788 31.6601 5.424C31.4954 5.05133 31.2571 4.76533 30.9451 4.566C30.6331 4.36667 30.2561 4.267 29.8141 4.267ZM34.918 10V3.5H35.763L35.906 4.566C36.088 4.16733 36.3523 3.86833 36.699 3.669C37.0543 3.46967 37.4833 3.37 37.986 3.37C38.0987 3.37 38.22 3.37867 38.35 3.396C38.4887 3.41333 38.6057 3.448 38.701 3.5L38.519 4.449C38.4237 4.41433 38.3197 4.38833 38.207 4.371C38.0943 4.35367 37.934 4.345 37.726 4.345C37.4573 4.345 37.1843 4.423 36.907 4.579C36.6383 4.735 36.413 4.97333 36.231 5.294C36.049 5.606 35.958 6.00467 35.958 6.49V10H34.918ZM44.3506 12.73V3.5H45.2606L45.3516 5.086L45.2086 4.904C45.3213 4.60067 45.4903 4.33633 45.7156 4.111C45.9409 3.877 46.2139 3.695 46.5346 3.565C46.8553 3.435 47.2019 3.37 47.5746 3.37C48.1033 3.37 48.5886 3.50433 49.0306 3.773C49.4813 4.04167 49.8409 4.42733 50.1096 4.93C50.3783 5.43267 50.5126 6.03933 50.5126 6.75C50.5126 7.452 50.3739 8.05867 50.0966 8.57C49.8279 9.07267 49.4683 9.45833 49.0176 9.727C48.5669 9.99567 48.0729 10.13 47.5356 10.13C46.9983 10.13 46.5259 10 46.1186 9.74C45.7199 9.47133 45.4339 9.13333 45.2606 8.726L45.3906 8.531V12.73H44.3506ZM47.4316 9.22C48.0729 9.22 48.5713 8.99467 48.9266 8.544C49.2906 8.09333 49.4726 7.49533 49.4726 6.75C49.4726 6.00467 49.2949 5.40667 48.9396 4.956C48.5929 4.50533 48.1033 4.28 47.4706 4.28C47.0546 4.28 46.6906 4.384 46.3786 4.592C46.0666 4.79133 45.8239 5.07733 45.6506 5.45C45.4773 5.814 45.3906 6.24733 45.3906 6.75C45.3906 7.244 45.4729 7.67733 45.6376 8.05C45.8109 8.42267 46.0493 8.713 46.3526 8.921C46.6646 9.12033 47.0243 9.22 47.4316 9.22ZM56.297 5.801C56.297 5.31567 56.167 4.943 55.907 4.683C55.647 4.41433 55.2787 4.28 54.802 4.28C54.3513 4.28 53.97 4.37967 53.658 4.579C53.346 4.76967 53.1163 5.08167 52.969 5.515L52.124 4.995C52.2973 4.50967 52.618 4.11967 53.086 3.825C53.554 3.52167 54.1347 3.37 54.828 3.37C55.296 3.37 55.7207 3.45233 56.102 3.617C56.4833 3.773 56.7823 4.01567 56.999 4.345C57.2243 4.66567 57.337 5.08167 57.337 5.593V8.739C57.337 9.051 57.5017 9.207 57.831 9.207C57.9957 9.207 58.156 9.18533 58.312 9.142L58.26 9.961C58.0867 10.0477 57.8613 10.091 57.584 10.091C57.3327 10.091 57.1073 10.0433 56.908 9.948C56.7087 9.85267 56.5527 9.70967 56.44 9.519C56.3273 9.31967 56.271 9.07267 56.271 8.778V8.648L56.531 8.687C56.427 9.025 56.2493 9.30233 55.998 9.519C55.7467 9.727 55.465 9.883 55.153 9.987C54.841 10.0823 54.5333 10.13 54.23 10.13C53.8487 10.13 53.4933 10.065 53.164 9.935C52.8347 9.805 52.5703 9.61 52.371 9.35C52.1803 9.08133 52.085 8.752 52.085 8.362C52.085 7.87667 52.2453 7.478 52.566 7.166C52.8953 6.84533 53.3503 6.62867 53.931 6.516L56.505 6.009V6.867L54.412 7.296C53.9873 7.38267 53.671 7.504 53.463 7.66C53.255 7.816 53.151 8.03267 53.151 8.31C53.151 8.57867 53.255 8.79967 53.463 8.973C53.6797 9.13767 53.983 9.22 54.373 9.22C54.6243 9.22 54.8627 9.18967 55.088 9.129C55.322 9.05967 55.53 8.96 55.712 8.83C55.894 8.69133 56.037 8.52233 56.141 8.323C56.245 8.115 56.297 7.87233 56.297 7.595V5.801ZM62.2043 10.13C61.5716 10.13 60.9866 9.99567 60.4493 9.727C59.9206 9.45833 59.5133 9.077 59.2273 8.583L60.1113 7.946C60.3019 8.34467 60.5793 8.65667 60.9433 8.882C61.3159 9.10733 61.7623 9.22 62.2823 9.22C62.7416 9.22 63.1013 9.13333 63.3613 8.96C63.6213 8.778 63.7513 8.544 63.7513 8.258C63.7513 8.076 63.6906 7.91133 63.5693 7.764C63.4566 7.608 63.2356 7.49533 62.9063 7.426L61.3463 7.101C60.7136 6.971 60.2586 6.75433 59.9813 6.451C59.7126 6.14767 59.5783 5.77067 59.5783 5.32C59.5783 4.96467 59.6779 4.63967 59.8773 4.345C60.0853 4.05033 60.3756 3.81633 60.7483 3.643C61.1296 3.461 61.5759 3.37 62.0873 3.37C62.7286 3.37 63.2703 3.49567 63.7123 3.747C64.1543 3.99833 64.4836 4.35367 64.7003 4.813L63.8293 5.385C63.6819 5.00367 63.4436 4.72633 63.1143 4.553C62.7849 4.371 62.4426 4.28 62.0873 4.28C61.7753 4.28 61.5066 4.32333 61.2813 4.41C61.0646 4.49667 60.8956 4.618 60.7743 4.774C60.6616 4.92133 60.6053 5.09033 60.6053 5.281C60.6053 5.47167 60.6703 5.64933 60.8003 5.814C60.9303 5.97 61.1729 6.08267 61.5283 6.152L63.1533 6.49C63.7599 6.61133 64.1846 6.81067 64.4273 7.088C64.6699 7.36533 64.7913 7.70333 64.7913 8.102C64.7913 8.50933 64.6829 8.869 64.4663 9.181C64.2496 9.48433 63.9463 9.71833 63.5563 9.883C63.1663 10.0477 62.7156 10.13 62.2043 10.13ZM69.0597 10.13C68.4271 10.13 67.8421 9.99567 67.3047 9.727C66.7761 9.45833 66.3687 9.077 66.0827 8.583L66.9667 7.946C67.1574 8.34467 67.4347 8.65667 67.7987 8.882C68.1714 9.10733 68.6177 9.22 69.1377 9.22C69.5971 9.22 69.9567 9.13333 70.2167 8.96C70.4767 8.778 70.6067 8.544 70.6067 8.258C70.6067 8.076 70.5461 7.91133 70.4247 7.764C70.3121 7.608 70.0911 7.49533 69.7617 7.426L68.2017 7.101C67.5691 6.971 67.1141 6.75433 66.8367 6.451C66.5681 6.14767 66.4337 5.77067 66.4337 5.32C66.4337 4.96467 66.5334 4.63967 66.7327 4.345C66.9407 4.05033 67.2311 3.81633 67.6037 3.643C67.9851 3.461 68.4314 3.37 68.9427 3.37C69.5841 3.37 70.1257 3.49567 70.5677 3.747C71.0097 3.99833 71.3391 4.35367 71.5557 4.813L70.6847 5.385C70.5374 5.00367 70.2991 4.72633 69.9697 4.553C69.6404 4.371 69.2981 4.28 68.9427 4.28C68.6307 4.28 68.3621 4.32333 68.1367 4.41C67.9201 4.49667 67.7511 4.618 67.6297 4.774C67.5171 4.92133 67.4607 5.09033 67.4607 5.281C67.4607 5.47167 67.5257 5.64933 67.6557 5.814C67.7857 5.97 68.0284 6.08267 68.3837 6.152L70.0087 6.49C70.6154 6.61133 71.0401 6.81067 71.2827 7.088C71.5254 7.36533 71.6467 7.70333 71.6467 8.102C71.6467 8.50933 71.5384 8.869 71.3217 9.181C71.1051 9.48433 70.8017 9.71833 70.4117 9.883C70.0217 10.0477 69.5711 10.13 69.0597 10.13ZM81.3327 3.5H82.4897L80.2277 10H79.1877L77.3547 4.826L75.6257 10H74.5857L72.3237 3.5H73.4807L75.1187 8.791L76.8867 3.5H77.9267L79.6947 8.791L81.3327 3.5ZM86.5367 3.37C87.1521 3.37 87.6937 3.50433 88.1617 3.773C88.6384 4.04167 89.0111 4.43167 89.2797 4.943C89.5484 5.44567 89.6827 6.048 89.6827 6.75C89.6827 7.452 89.5484 8.05867 89.2797 8.57C89.0111 9.07267 88.6384 9.45833 88.1617 9.727C87.6937 9.99567 87.1521 10.13 86.5367 10.13C85.9301 10.13 85.3884 9.99567 84.9117 9.727C84.4351 9.45833 84.0624 9.07267 83.7937 8.57C83.5251 8.05867 83.3907 7.452 83.3907 6.75C83.3907 6.048 83.5251 5.44567 83.7937 4.943C84.0624 4.43167 84.4351 4.04167 84.9117 3.773C85.3884 3.50433 85.9301 3.37 86.5367 3.37ZM86.5367 4.267C86.0947 4.267 85.7177 4.36667 85.4057 4.566C85.0937 4.76533 84.8511 5.05133 84.6777 5.424C84.5131 5.788 84.4307 6.23 84.4307 6.75C84.4307 7.26133 84.5131 7.70333 84.6777 8.076C84.8511 8.44867 85.0937 8.73467 85.4057 8.934C85.7177 9.13333 86.0947 9.233 86.5367 9.233C86.9787 9.233 87.3557 9.13333 87.6677 8.934C87.9797 8.73467 88.2181 8.44867 88.3827 8.076C88.5561 7.70333 88.6427 7.26133 88.6427 6.75C88.6427 6.23 88.5561 5.788 88.3827 5.424C88.2181 5.05133 87.9797 4.76533 87.6677 4.566C87.3557 4.36667 86.9787 4.267 86.5367 4.267ZM91.6406 10V3.5H92.4856L92.6286 4.566C92.8106 4.16733 93.075 3.86833 93.4216 3.669C93.777 3.46967 94.206 3.37 94.7086 3.37C94.8213 3.37 94.9426 3.37867 95.0726 3.396C95.2113 3.41333 95.3283 3.448 95.4236 3.5L95.2416 4.449C95.1463 4.41433 95.0423 4.38833 94.9296 4.371C94.817 4.35367 94.6566 4.345 94.4486 4.345C94.18 4.345 93.907 4.423 93.6296 4.579C93.361 4.735 93.1356 4.97333 92.9536 5.294C92.7716 5.606 92.6806 6.00467 92.6806 6.49V10H91.6406ZM99.2792 10.13C98.7418 10.13 98.2478 9.99567 97.7972 9.727C97.3465 9.45833 96.9868 9.07267 96.7182 8.57C96.4495 8.05867 96.3152 7.452 96.3152 6.75C96.3152 6.03067 96.4582 5.41967 96.7442 4.917C97.0302 4.41433 97.4072 4.033 97.8752 3.773C98.3432 3.50433 98.8458 3.37 99.3832 3.37C99.9205 3.37 100.384 3.50867 100.774 3.786C101.173 4.06333 101.437 4.43167 101.567 4.891L101.437 4.982V0.51H102.477V10H101.567L101.476 8.427L101.619 8.349C101.558 8.73033 101.411 9.05533 101.177 9.324C100.952 9.584 100.67 9.78333 100.332 9.922C100.003 10.0607 99.6518 10.13 99.2792 10.13ZM99.3832 9.22C99.7992 9.22 100.159 9.116 100.462 8.908C100.774 8.7 101.012 8.40533 101.177 8.024C101.35 7.634 101.437 7.179 101.437 6.659C101.437 6.165 101.35 5.74033 101.177 5.385C101.012 5.02967 100.778 4.75667 100.475 4.566C100.18 4.37533 99.8338 4.28 99.4352 4.28C98.7765 4.28 98.2652 4.50533 97.9012 4.956C97.5372 5.40667 97.3552 6.00467 97.3552 6.75C97.3552 7.49533 97.5328 8.09333 97.8882 8.544C98.2435 8.99467 98.7418 9.22 99.3832 9.22ZM111.665 1.29C112.237 1.29 112.736 1.381 113.16 1.563C113.585 1.745 113.914 2.005 114.148 2.343C114.391 2.681 114.512 3.084 114.512 3.552C114.512 4.05467 114.4 4.475 114.174 4.813C113.958 5.14233 113.663 5.39367 113.29 5.567C112.926 5.74033 112.519 5.853 112.068 5.905V7.296H110.989V5.346C111.622 5.25067 112.112 5.13367 112.458 4.995C112.814 4.85633 113.061 4.683 113.199 4.475C113.347 4.267 113.42 4.01133 113.42 3.708C113.42 3.40467 113.351 3.14467 113.212 2.928C113.082 2.71133 112.883 2.54667 112.614 2.434C112.346 2.32133 112.003 2.265 111.587 2.265C111.015 2.265 110.547 2.42533 110.183 2.746C109.828 3.058 109.616 3.487 109.546 4.033L108.623 3.5C108.719 3.058 108.901 2.67233 109.169 2.343C109.447 2.005 109.793 1.745 110.209 1.563C110.634 1.381 111.119 1.29 111.665 1.29ZM111.509 8.44C111.761 8.44 111.964 8.518 112.12 8.674C112.276 8.83 112.354 9.03367 112.354 9.285C112.354 9.53633 112.276 9.74 112.12 9.896C111.964 10.052 111.761 10.13 111.509 10.13C111.258 10.13 111.054 10.052 110.898 9.896C110.742 9.74 110.664 9.53633 110.664 9.285C110.664 9.03367 110.742 8.83 110.898 8.674C111.054 8.518 111.258 8.44 111.509 8.44Z" fill="#B0B0B0"/>
</svg>
