<svg width="80" height="80" viewBox="0 0 80 80" fill="none" xmlns="http://www.w3.org/2000/svg">
<circle cx="40" cy="40" r="40" fill="#D9D9D9"/>
<path fill-rule="evenodd" clip-rule="evenodd" d="M52.75 35.0417C52.7501 36.1162 52.3432 37.1508 51.6111 37.9374C50.8791 38.7239 49.8763 39.204 48.8046 39.281L46.6435 41.4415C47.2491 42.4664 47.5218 43.8264 47.6557 45.3387C47.7917 46.8751 47.7917 48.6714 47.7917 50.6002V51.3333H46.375V50.625C46.375 48.6672 46.375 46.931 46.2447 45.4641C46.1306 44.1792 45.9224 43.1783 45.5767 42.4515C44.7288 42.3382 43.9546 41.9118 43.2916 41.3862C42.5096 40.7671 41.814 39.9589 41.2417 39.1798C40.6922 38.425 40.1941 37.6341 39.7507 36.8125C38.7987 37.4713 37.5159 37.875 36.1042 37.875C33.1702 37.875 30.7917 36.1311 30.7917 33.9792C30.7917 32.0008 32.8019 30.3667 35.4065 30.1166C36.3145 28.4485 38.8206 27.25 41.7708 27.25C45.1057 27.25 47.8738 28.7821 48.4072 30.7924L48.5 30.7917C49.6272 30.7917 50.7082 31.2394 51.5052 32.0365C52.3022 32.8335 52.75 33.9145 52.75 35.0417ZM44.2691 35.4475C43.452 35.6507 42.6129 35.7523 41.7708 35.75C41.4634 35.75 41.1602 35.7373 40.8642 35.7118L40.8103 35.7883C40.8868 35.9356 40.9874 36.1261 41.1107 36.3457C41.5156 37.0745 41.967 37.7765 42.4622 38.4473V38.3439C43.2449 38.3439 44.0665 37.921 44.748 37.4174C44.8004 37.3792 44.8514 37.3409 44.9002 37.302C44.5475 36.7418 44.3313 36.1066 44.2691 35.4475ZM45.8459 38.3609C46.2065 38.6497 46.6118 38.8777 47.0458 39.036L45.19 40.8918C44.8606 40.7586 44.5199 40.5518 44.1707 40.2755C43.9202 40.0752 43.6829 39.8589 43.4602 39.6281C44.2982 39.4114 45.0398 38.963 45.5895 38.5578C45.6787 38.492 45.7644 38.4261 45.8459 38.3609Z" fill="#00725E"/>
<path d="M33.982 42.8348C34.4517 42.8344 34.9019 42.6475 35.2338 42.3151C35.5656 41.9827 35.7518 41.5322 35.7514 41.0625C35.751 40.5929 35.5641 40.1426 35.2317 39.8108C34.8994 39.4789 34.4488 39.2927 33.9792 39.2931C33.5095 39.2935 33.0592 39.4804 32.7274 39.8128C32.5631 39.9773 32.4328 40.1726 32.344 40.3876C32.2552 40.6025 32.2096 40.8328 32.2097 41.0653C32.2099 41.2979 32.2559 41.5281 32.3451 41.7429C32.4343 41.9577 32.5648 42.1528 32.7294 42.3171C33.0618 42.6489 33.5123 42.8351 33.982 42.8348ZM29.0237 45.6681C29.4933 45.6677 29.9436 45.4808 30.2754 45.1484C30.6072 44.8161 30.7935 44.3655 30.7931 43.8958C30.7927 43.4262 30.6058 42.9759 30.2734 42.6441C29.9411 42.3123 29.4905 42.126 29.0208 42.1264C28.5512 42.1268 28.1009 42.3137 27.7691 42.6461C27.4372 42.9785 27.251 43.429 27.2514 43.8987C27.2518 44.3683 27.4387 44.8186 27.7711 45.1504C28.1034 45.4823 28.554 45.6685 29.0237 45.6681ZM42.8348 43.8958C42.8349 44.1284 42.7893 44.3587 42.7005 44.5736C42.6117 44.7885 42.4814 44.9839 42.3171 45.1484C42.1528 45.313 41.9577 45.4436 41.7429 45.5328C41.5281 45.6219 41.2979 45.6679 41.0653 45.6681C40.5957 45.6685 40.1451 45.4823 39.8127 45.1504C39.4804 44.8186 39.2935 44.3683 39.2931 43.8987C39.2929 43.6661 39.3385 43.4358 39.4273 43.2209C39.5162 43.006 39.6464 42.8107 39.8107 42.6461C40.1426 42.3137 40.5928 42.1268 41.0625 42.1264C41.5322 42.126 41.9827 42.3123 42.3151 42.6441C42.6474 42.9759 42.8344 43.4262 42.8348 43.8958ZM33.625 43.5417C34.0007 43.5417 34.3611 43.6909 34.6267 43.9566C34.8924 44.2223 35.0417 44.5826 35.0417 44.9583V46.375H36.4583C36.8341 46.375 37.1944 46.5243 37.4601 46.7899C37.7257 47.0556 37.875 47.416 37.875 47.7917C37.875 48.1674 37.7257 48.5277 37.4601 48.7934C37.1944 49.0591 36.8341 49.2083 36.4583 49.2083H33.625C33.2493 49.2083 32.8889 49.0591 32.6233 48.7934C32.3576 48.5277 32.2083 48.1674 32.2083 47.7917V44.9583C32.2083 44.5826 32.3576 44.2223 32.6233 43.9566C32.8889 43.6909 33.2493 43.5417 33.625 43.5417ZM30.0833 47.7917C30.0833 47.416 29.9341 47.0556 29.6684 46.7899C29.4027 46.5243 29.0424 46.375 28.6667 46.375C28.2909 46.375 27.9306 46.5243 27.6649 46.7899C27.3993 47.0556 27.25 47.416 27.25 47.7917V51.3333C27.25 51.7091 27.3993 52.0694 27.6649 52.3351C27.9306 52.6008 28.2909 52.75 28.6667 52.75H31.5C31.8757 52.75 32.2361 52.6008 32.5017 52.3351C32.7674 52.0694 32.9167 51.7091 32.9167 51.3333C32.9167 50.9576 32.7674 50.5973 32.5017 50.3316C32.2361 50.0659 31.8757 49.9167 31.5 49.9167H30.0833V47.7917ZM41.4167 46.375C41.0409 46.375 40.6806 46.5243 40.4149 46.7899C40.1493 47.0556 40 47.416 40 47.7917V49.9167H38.5833C38.2076 49.9167 37.8473 50.0659 37.5816 50.3316C37.3159 50.5973 37.1667 50.9576 37.1667 51.3333C37.1667 51.7091 37.3159 52.0694 37.5816 52.3351C37.8473 52.6008 38.2076 52.75 38.5833 52.75H41.4167C41.7924 52.75 42.1527 52.6008 42.4184 52.3351C42.6841 52.0694 42.8333 51.7091 42.8333 51.3333V47.7917C42.8333 47.416 42.6841 47.0556 42.4184 46.7899C42.1527 46.5243 41.7924 46.375 41.4167 46.375Z" fill="#00725E"/>
</svg>
