<svg width="68" height="66" viewBox="0 0 68 66" fill="none" xmlns="http://www.w3.org/2000/svg">
<ellipse cx="34" cy="32.6609" rx="34" ry="32.6611" fill="#D9D9D9"/>
<path fill-rule="evenodd" clip-rule="evenodd" d="M46.75 28.0415C46.75 29.116 46.3431 30.1507 45.6111 30.9373C44.8791 31.7238 43.8763 32.2039 42.8045 32.2809L40.6434 34.4413C41.249 35.4663 41.5218 36.8263 41.6556 38.3386C41.7916 39.875 41.7916 41.6713 41.7916 43.6001V44.3332H40.375V43.6249C40.375 41.667 40.375 39.9309 40.2446 38.464C40.1306 37.179 39.9223 36.1782 39.5767 35.4514C38.7288 35.3381 37.9546 34.9117 37.2916 34.3861C36.5096 33.767 35.814 32.9588 35.2417 32.1796C34.6922 31.4249 34.194 30.634 33.7506 29.8124C32.7986 30.4711 31.5158 30.8749 30.1041 30.8749C27.1702 30.8749 24.7916 29.131 24.7916 26.979C24.7916 25.0007 26.8019 23.3665 29.4064 23.1165C30.3145 21.4484 32.8206 20.2499 35.7708 20.2499C39.1056 20.2499 41.8738 21.782 42.4072 23.7923L42.5 23.7915C43.6271 23.7915 44.7081 24.2393 45.5052 25.0363C46.3022 25.8334 46.75 26.9144 46.75 28.0415ZM38.2691 28.4474C37.4519 28.6505 36.6128 28.7521 35.7708 28.7499C35.4634 28.7499 35.1602 28.7371 34.8641 28.7116L34.8103 28.7881C34.8868 28.9355 34.9874 29.126 35.1106 29.3456C35.5155 30.0744 35.967 30.7764 36.4621 31.4472V31.3438C37.2448 31.3438 38.0665 30.9209 38.7479 30.4173C38.8003 30.379 38.8513 30.3408 38.9002 30.3018C38.5474 29.7417 38.3313 29.1065 38.2691 28.4474ZM39.8458 31.3608C40.2064 31.6496 40.6117 31.8776 41.0458 32.0358L39.1899 33.8917C38.8605 33.7585 38.5198 33.5517 38.1706 33.2754C37.9202 33.075 37.6829 32.8588 37.4602 32.628C38.2981 32.4113 39.0398 31.9629 39.5894 31.5577C39.6787 31.4918 39.7644 31.426 39.8458 31.3608Z" fill="#00725E"/>
<path d="M27.982 35.8346C28.4517 35.8343 28.9019 35.6473 29.2338 35.315C29.5656 34.9826 29.7518 34.532 29.7514 34.0624C29.751 33.5927 29.5641 33.1425 29.2317 32.8106C28.8994 32.4788 28.4488 32.2926 27.9792 32.293C27.5095 32.2933 27.0592 32.4803 26.7274 32.8126C26.5631 32.9772 26.4328 33.1725 26.344 33.3874C26.2552 33.6024 26.2096 33.8327 26.2097 34.0652C26.2099 34.2978 26.2559 34.528 26.3451 34.7428C26.4343 34.9576 26.5648 35.1527 26.7294 35.317C27.0618 35.6488 27.5123 35.835 27.982 35.8346ZM23.0237 38.668C23.4933 38.6676 23.9436 38.4807 24.2754 38.1483C24.6072 37.8159 24.7935 37.3654 24.7931 36.8957C24.7927 36.4261 24.6058 35.9758 24.2734 35.644C23.9411 35.3121 23.4905 35.1259 23.0208 35.1263C22.5512 35.1267 22.1009 35.3136 21.7691 35.646C21.4372 35.9783 21.251 36.4289 21.2514 36.8986C21.2518 37.3682 21.4387 37.8185 21.7711 38.1503C22.1034 38.4821 22.554 38.6683 23.0237 38.668ZM36.8348 36.8957C36.8349 37.1283 36.7893 37.3586 36.7005 37.5735C36.6117 37.7884 36.4814 37.9837 36.3171 38.1483C36.1528 38.3129 35.9577 38.4435 35.7429 38.5326C35.5281 38.6218 35.2979 38.6678 35.0653 38.668C34.5957 38.6683 34.1451 38.4821 33.8127 38.1503C33.4804 37.8185 33.2935 37.3682 33.2931 36.8986C33.2929 36.666 33.3385 36.4357 33.4273 36.2208C33.5162 36.0059 33.6464 35.8105 33.8107 35.646C34.1426 35.3136 34.5928 35.1267 35.0625 35.1263C35.5322 35.1259 35.9827 35.3121 36.3151 35.644C36.6474 35.9758 36.8344 36.4261 36.8348 36.8957ZM27.625 36.5416C28.0007 36.5416 28.3611 36.6908 28.6267 36.9565C28.8924 37.2222 29.0417 37.5825 29.0417 37.9582V39.3749H30.4583C30.8341 39.3749 31.1944 39.5241 31.4601 39.7898C31.7257 40.0555 31.875 40.4158 31.875 40.7916C31.875 41.1673 31.7257 41.5276 31.4601 41.7933C31.1944 42.059 30.8341 42.2082 30.4583 42.2082H27.625C27.2493 42.2082 26.8889 42.059 26.6233 41.7933C26.3576 41.5276 26.2083 41.1673 26.2083 40.7916V37.9582C26.2083 37.5825 26.3576 37.2222 26.6233 36.9565C26.8889 36.6908 27.2493 36.5416 27.625 36.5416ZM24.0833 40.7916C24.0833 40.4158 23.9341 40.0555 23.6684 39.7898C23.4027 39.5241 23.0424 39.3749 22.6667 39.3749C22.2909 39.3749 21.9306 39.5241 21.6649 39.7898C21.3993 40.0555 21.25 40.4158 21.25 40.7916V44.3332C21.25 44.7089 21.3993 45.0693 21.6649 45.335C21.9306 45.6006 22.2909 45.7499 22.6667 45.7499H25.5C25.8757 45.7499 26.2361 45.6006 26.5017 45.335C26.7674 45.0693 26.9167 44.7089 26.9167 44.3332C26.9167 43.9575 26.7674 43.5972 26.5017 43.3315C26.2361 43.0658 25.8757 42.9166 25.5 42.9166H24.0833V40.7916ZM35.4167 39.3749C35.0409 39.3749 34.6806 39.5241 34.4149 39.7898C34.1493 40.0555 34 40.4158 34 40.7916V42.9166H32.5833C32.2076 42.9166 31.8473 43.0658 31.5816 43.3315C31.3159 43.5972 31.1667 43.9575 31.1667 44.3332C31.1667 44.7089 31.3159 45.0693 31.5816 45.335C31.8473 45.6006 32.2076 45.7499 32.5833 45.7499H35.4167C35.7924 45.7499 36.1527 45.6006 36.4184 45.335C36.6841 45.0693 36.8333 44.7089 36.8333 44.3332V40.7916C36.8333 40.4158 36.6841 40.0555 36.4184 39.7898C36.1527 39.5241 35.7924 39.3749 35.4167 39.3749Z" fill="#00725E"/>
</svg>
