<svg width="68" height="66" viewBox="0 0 68 66" fill="none" xmlns="http://www.w3.org/2000/svg">
<ellipse cx="34" cy="32.6609" rx="34" ry="32.6611" fill="#D9D9D9"/>
<path d="M38.6859 30.2546V29.9019C38.6859 26.6064 34.4542 24.0441 34.2746 23.9369C34.0206 23.7853 33.7049 23.7853 33.4509 23.9369C33.2708 24.0441 29.039 26.6059 29.039 29.9019V30.2546H38.6859ZM37.882 31.3264H30.3789C28.7507 31.3264 26.8953 32.6459 26.8953 34.2741V41.7772C26.8953 42.221 27.2554 42.5811 27.6992 42.5811H30.3789C30.8226 42.5811 31.1828 42.221 31.1828 41.7772V39.1645C31.1828 36.5561 33.1534 35.429 33.7515 35.1488C33.8239 35.115 33.9016 35.115 33.974 35.1488C34.5721 35.4301 36.5422 36.5572 36.5422 39.1645V41.7772C36.5422 42.221 36.9023 42.5811 37.3461 42.5811H40.0258C40.4695 42.5811 40.8297 42.221 40.8297 41.7772V34.2741C40.8297 32.6459 39.5102 31.3264 37.882 31.3264ZM25.795 26.0512L24.7376 21.5568C24.6803 21.3146 24.4643 21.1436 24.2156 21.1436C23.9669 21.1436 23.7509 21.3146 23.6936 21.5568L22.6362 26.0512C22.6265 26.1332 22.6174 26.2141 22.6078 26.2967V41.7772C22.6078 42.221 22.9679 42.5811 23.4117 42.5811H25.0195C25.4633 42.5811 25.8234 42.221 25.8234 41.7772V26.2967C25.8138 26.2141 25.8047 26.1332 25.795 26.0512ZM45.6247 26.0512L44.5673 21.5568C44.5099 21.3146 44.294 21.1436 44.0453 21.1436C43.7966 21.1436 43.5806 21.3146 43.5233 21.5568L42.4659 26.0512C42.4562 26.1332 42.4471 26.2147 42.4375 26.2967V41.7772C42.4375 42.221 42.7976 42.5811 43.2414 42.5811H44.8492C45.2929 42.5811 45.6531 42.221 45.6531 41.7772V26.2967C45.6435 26.2141 45.6343 26.1332 45.6247 26.0512Z" fill="#00725E"/>
</svg>
