<svg width="24" height="26" viewBox="0 0 24 26" fill="none" xmlns="http://www.w3.org/2000/svg">
<path fill-rule="evenodd" clip-rule="evenodd" d="M13.803 5.63981C13.803 3.72438 15.303 2.17018 17.151 2.17018C17.5897 2.16908 18.0244 2.25796 18.4302 2.43173C18.8359 2.6055 19.2048 2.86077 19.5158 3.18296C19.8268 3.50514 20.0738 3.88794 20.2426 4.30949C20.4115 4.73103 20.499 5.18308 20.5 5.63981C20.5 7.55628 19 9.11049 17.151 9.11049C16.7076 9.11106 16.2685 9.01987 15.8592 8.84224C15.45 8.6646 15.0787 8.40405 14.767 8.07574L10.132 11.3611C10.2611 12.0305 10.1978 12.7246 9.95 13.3567L15.032 16.8336C15.6306 16.3255 16.3796 16.0485 17.152 16.0498C17.5907 16.0488 18.0254 16.1378 18.4311 16.3117C18.8368 16.4856 19.2056 16.741 19.5165 17.0633C19.8274 17.3856 20.0743 17.7684 20.243 18.19C20.4118 18.6116 20.4991 19.0637 20.5 19.5204C20.5 21.4359 19 22.9901 17.151 22.9901C16.2651 22.992 15.4147 22.6276 14.7869 21.9769C14.159 21.3263 13.8051 20.4427 13.803 19.5204C13.8022 19.0339 13.9007 18.5528 14.092 18.1089L9.05 14.6621C8.43941 15.2148 7.65712 15.5184 6.848 15.5168C6.40922 15.5179 5.97453 15.429 5.56877 15.2551C5.16301 15.0812 4.79413 14.8259 4.48321 14.5036C4.17229 14.1813 3.92543 13.7983 3.75673 13.3767C3.58802 12.955 3.50079 12.5029 3.5 12.0461C3.50092 11.5894 3.58825 11.1374 3.75701 10.7158C3.92578 10.2943 4.17266 9.9115 4.48356 9.5893C4.79447 9.2671 5.1633 9.01182 5.569 8.83804C5.97469 8.66425 6.4093 8.57537 6.848 8.57646C7.912 8.57646 8.858 9.08967 9.471 9.88915L13.964 6.70475C13.8571 6.36074 13.8028 6.00138 13.803 5.63981Z" fill="#00725E"/>
</svg>
