<svg width="33" height="29" viewBox="0 0 33 29" fill="none" xmlns="http://www.w3.org/2000/svg">
<path d="M32.9378 0.950451V7.19045H31.0178C29.4711 7.19045 28.2445 7.43045 27.3378 7.91045C26.4311 8.39045 25.7645 9.21711 25.3378 10.3904C24.9111 11.5105 24.6978 13.0305 24.6978 14.9505V20.8704L22.3778 16.3904C22.7511 16.1238 23.2845 15.9104 23.9778 15.7505C24.6711 15.5371 25.3911 15.4305 26.1378 15.4305C27.8978 15.4305 29.3645 15.9904 30.5378 17.1104C31.7111 18.1771 32.2978 19.6705 32.2978 21.5904C32.2978 23.4038 31.7378 24.9505 30.6178 26.2304C29.4978 27.4571 27.8978 28.0704 25.8178 28.0704C24.4845 28.0704 23.2311 27.7771 22.0578 27.1904C20.9378 26.5504 20.0311 25.4838 19.3378 23.9904C18.6445 22.4438 18.2978 20.3371 18.2978 17.6705V16.3104C18.2978 12.5238 18.8045 9.51045 19.8178 7.27045C20.8845 5.03045 22.4045 3.43045 24.3778 2.47045C26.3511 1.45712 28.7511 0.950451 31.5778 0.950451H32.9378ZM15.2578 0.950451V7.19045H13.3378C11.7911 7.19045 10.5645 7.43045 9.65779 7.91045C8.75113 8.39045 8.08446 9.21711 7.65779 10.3904C7.23113 11.5105 7.01779 13.0305 7.01779 14.9505L7.01779 20.8704L4.69779 16.3904C5.07113 16.1238 5.60446 15.9104 6.29779 15.7505C6.99113 15.5371 7.71113 15.4305 8.45779 15.4305C10.2178 15.4305 11.6845 15.9904 12.8578 17.1104C14.0311 18.1771 14.6178 19.6705 14.6178 21.5904C14.6178 23.4038 14.0578 24.9505 12.9378 26.2304C11.8178 27.4571 10.2178 28.0704 8.13779 28.0704C6.80446 28.0704 5.55113 27.7771 4.37779 27.1904C3.25779 26.5504 2.35113 25.4838 1.65779 23.9904C0.96446 22.4438 0.617793 20.3371 0.617793 17.6705L0.617793 16.3104C0.617793 12.5238 1.12446 9.51045 2.13779 7.27045C3.20446 5.03045 4.72446 3.43045 6.69779 2.47045C8.67113 1.45712 11.0711 0.950451 13.8978 0.950451H15.2578Z" fill="#00725E"/>
</svg>
